PathFileType	4	(X/Y/Z)	T1_P1_NoVision_Movement_3_0-681.trc
DataRate	CameraRate	NumFrames	NumMarkers	Units	OrigDataRate	OrigDataStartFrame	OrigNumFrames
60	60	7	27	m	60	340	681
Frame#	Time	RHip			RKnee			RAnkle			RBigToe			RSmallToe			RHeel			LHip			LKnee			LAnkle			LBigToe			LSmallToe			LHeel			Neck			Head			Nose			RShoulder			RElbow			RWrist			RThumb			RIndex			RPinky			LShoulder			LElbow			LWrist			LThumb			LIndex			LPinky		
		X1	Y1	Z1	X2	Y2	Z2	X3	Y3	Z3	X4	Y4	Z4	X5	Y5	Z5	X6	Y6	Z6	X7	Y7	Z7	X8	Y8	Z8	X9	Y9	Z9	X10	Y10	Z10	X11	Y11	Z11	X12	Y12	Z12	X13	Y13	Z13	X14	Y14	Z14	X15	Y15	Z15	X16	Y16	Z16	X17	Y17	Z17	X18	Y18	Z18	X19	Y19	Z19	X20	Y20	Z20	X21	Y21	Z21	X22	Y22	Z22	X23	Y23	Z23	X24	Y24	Z24	X25	Y25	Z25	X26	Y26	Z26	X27	Y27	Z27
341	5.683333333333334	-82.11901688763598	3850.7475722046406	-589.3093580907878	275.16246301046317	4042.160866699038	-568.087267923818	624.7934428078969	4148.941814889079	-524.1331398501653	690.1987549252905	4092.4344965621435	-477.7064913285697	699.6092431812841	4117.704540838948	-555.072712439435	656.0009977919657	4194.120855733611	-532.0488842573437	-118.09072584137176	3938.353687450226	-390.97636627215246	220.1946765602152	4031.3044875314818	-375.5652696310091	570.9438948228634	4189.970662856326	-380.87654105407375	672.5013461509861	4182.347462567851	-348.8878860585216	628.3062817625189	4190.932555118067	-318.5584587863193	599.5234305832543	4230.478201212758	-408.35198206501707	-699.4070934186035	3746.538299727106	-532.9006247494524	-921.1747197160277	3557.445751287328	-451.58210388648456	-788.7199784679392	3586.4266915217345	-436.7956579882139	-587.521815997874	3708.438620683842	-675.8922838095436	-350.8072485736155	3587.098409058243	-667.4829100284408	-542.2875318041162	3436.4171165382068	-520.1065839779367	-651.1714319209594	3401.617629322374	-446.308551487386	-655.6004766151675	3402.1484508729727	-432.37167132022574	-625.2301567135728	3344.6183519704855	-423.216838778585	-637.7728373681966	3886.7868252165667	-426.0367159536071	-400.6213505966878	4009.5555414689575	-351.1901240207635	-148.8782161878037	3980.581711331013	-258.70561649491754	-13.882594728239901	3958.6489961338043	-253.0446379408256	3.216363987750614	3980.493602194333	-220.33502860756388	-11.381313688742065	4001.7960208121435	-221.15389223074664
342	5.7	-81.55618856674586	3823.0830756679534	-582.1768137625176	272.3402987044015	4020.675026371625	-552.4556304687942	624.8513727895725	4148.940863805105	-524.163184010067	690.3682109523123	4092.6298211821218	-477.7301881196051	706.2935726900637	4122.175340039857	-557.4085269843438	655.975388599745	4194.13582312354	-532.0918907688665	-117.39173529699335	3941.006513421921	-397.88841879257694	220.40604591950097	4031.7887735441104	-375.6754763383497	571.1241657739217	4190.31937739467	-381.0183872748185	674.9116955372601	4188.205614880566	-351.6605978295062	632.6550311047702	4221.769290766808	-323.556891316966	604.23307110692	4252.691711680324	-422.7083941028761	-699.4578126204043	3746.698211282916	-532.9450689312798	-921.3063579690736	3557.3503102082814	-451.56684767616935	-788.7701803101905	3586.440295656947	-436.7606375069869	-587.6379160610287	3708.1805443354497	-670.2426724518617	-350.7762303718228	3586.4616012422216	-667.2749195916845	-538.8395406141199	3413.109679228293	-514.1699942454876	-652.0829334043752	3402.7541757917147	-446.5773665292787	-656.8133072667083	3404.0541820253866	-429.2540481535647	-630.0825735115721	3367.7683144175917	-428.75978292884366	-637.7474962659484	3886.6630094156662	-426.0165914821582	-400.6185695416891	4009.5223348988443	-351.19573477409875	-149.03060750989087	3980.4361110264	-258.74919804744724	-19.17495124045097	3973.597790179651	-260.30057076086695	4.262499253541275	3998.8203065275584	-232.22674662382292	-10.419527041501336	4020.0538558785393	-232.88544164922217
343	5.716666666666667	-81.61755513604759	3823.0287421693506	-582.1894499170327	273.3581102811311	4012.8487517015474	-561.3267102780463	624.9510553837496	4149.539836298923	-524.3256661111934	690.210431741966	4092.5252917400107	-477.6768062404233	704.9816437002764	4120.987368689027	-550.5380269156414	656.123328564031	4194.776914742185	-532.2443410403442	-118.09379456787482	3938.255636337481	-390.94202636404674	220.4207562482141	4031.784686458326	-375.7840104167205	577.244764516408	4194.589155407211	-383.10714664264174	674.5106693631265	4184.29594945236	-351.609495768676	639.8249022474047	4226.7078848704705	-325.57464533458636	610.0673648807684	4252.369316202212	-422.13392985442255	-699.3357923234067	3746.3947483771144	-532.7731923521758	-921.2798326983393	3557.2884115137804	-451.5150686447735	-784.2112753421706	3587.6733421703325	-436.88888770686236	-587.3716431649278	3708.2740343091345	-675.7801258605163	-350.78301685753604	3586.08374365638	-667.1172048753452	-542.2724538808601	3435.546683720591	-519.8300027298638	-651.9807602236133	3403.028809272905	-447.04885969841354	-661.1418701683422	3402.1982948947975	-433.04991883697403	-630.4920244246769	3367.345786755401	-433.50315184013107	-642.5427025588626	3882.9241701223577	-424.70425347160307	-400.6339972218658	4009.3538212452877	-351.06488493020146	-148.86026340230865	3980.487347726614	-258.7129127553742	-18.7345395705306	3973.7485240286846	-260.35901204287626	9.402027421566434	4002.5533558047587	-233.7111618349185	-5.705575755488788	4023.471280728399	-234.35273182433275
344	5.733333333333333	-81.6448980975358	3823.1723961236016	-582.2281127698616	273.4157408465599	4012.9283613635903	-561.4553288708063	629.8764083612925	4171.37656353501	-539.4432484794905	690.4448592969255	4092.720451130156	-477.79432371349674	711.6520303787737	4121.388015173572	-556.6316448962796	656.3463030117776	4194.865826111127	-532.4758845204121	-117.40735078377035	3940.87131430832	-397.9603321631812	220.4183801236925	4031.855830326866	-375.85461454344517	577.6335582445425	4194.993575175978	-383.17051012695646	680.2199722909471	4187.471545402332	-350.92138037678615	644.1022344885286	4249.427555813441	-337.8888377467229	610.4867037419943	4252.655288746228	-422.1575538403136	-699.4598500183423	3746.597930091382	-532.879404370215	-921.3229387636721	3557.397502379749	-451.60535156501277	-784.2636508642977	3587.731652751437	-436.9560612185859	-587.3800364726288	3708.372168522149	-675.828538849428	-350.7918383962939	3586.311889744078	-667.1544390608717	-538.8546704372732	3413.1565103459343	-514.3212965087697	-651.9946750102267	3403.3023302019305	-447.5926645604241	-666.220872640101	3401.0146807449732	-434.00257901437146	-630.4037158840172	3367.322798494779	-434.0861592604464	-637.7447618355944	3886.3902745641744	-425.87098101303405	-401.58496927401706	4029.0883352338606	-364.7695966446868	-148.70898527954898	3980.399145416652	-258.7217684886185	-13.367904338814986	3975.7402523571936	-259.6133302991515	9.25462589890406	4002.484805437076	-233.67875571747854	-10.224193735555264	4020.0410235207055	-232.93663950307536
345	5.75	-82.10088654808663	3851.0054666169626	-589.4968384088002	269.8672603928116	4040.7145389832926	-575.5508265474557	629.6411186225716	4171.279153245264	-539.4166207529468	690.0398668229229	4092.082558088722	-477.6367238083736	699.565651991923	4117.6798838574405	-555.1723752462427	656.1033410671272	4194.672916761717	-532.4704229210087	-117.3462983014577	3941.1687567678464	-398.1266380034414	225.32611185235086	4032.382703301838	-375.8569500436418	578.8953815578534	4198.907557379844	-383.1703150535532	670.4399007410918	4158.840263149361	-346.7449962575172	646.2986838374861	4221.997909226481	-334.7669069736711	610.6862348017514	4257.810908357434	-425.11450469376615	-699.348146205031	3746.6804093239066	-532.8277736218349	-921.1563134099727	3557.2550821646123	-451.4886123098123	-784.2163497479723	3587.845432678253	-437.0414145631734	-587.6613190662877	3708.6492714125297	-670.4306784304474	-351.20256081237477	3585.547124333854	-667.3557781518342	-541.8943378675933	3434.6414431452426	-524.4265024366266	-652.3533662721263	3403.4127937995745	-447.7935343364014	-662.9682204295333	3380.502399484339	-430.0422305921666	-631.0738299271366	3368.314101158467	-434.41412672245514	-637.7230471570057	3886.9185708258083	-426.1284965390388	-400.48479597591887	4009.127295846695	-351.0909376314897	-148.83750903503048	3980.1746608969243	-258.72541955780105	-19.164943624423934	3973.167047445078	-260.1410561739342	4.114502070855661	3998.7683401360505	-232.31031658937303	-10.193604302462942	4020.3837780772974	-233.28715586040227
346	5.766666666666667	-86.49119024142485	3821.5866142989466	-582.9008630542746	262.9387792867565	4011.395691735628	-569.1569367499909	624.876908975504	4149.371390683403	-524.4883098265383	696.5617379766701	4096.5316059574725	-479.99054655690264	700.5637712592758	4100.006179705216	-541.8605102423865	650.7020469034965	4195.308299288132	-533.105099432079	-117.38593134214064	3941.31494889815	-398.24719451020235	220.35539735472443	4032.4236906007905	-376.21779438079125	572.1819168014723	4195.503008157002	-383.8107243454199	674.8879551270068	4188.103483013568	-351.6632460047784	639.61044383814	4226.637440024654	-325.80114637459803	605.6636347468212	4235.553878127402	-410.70651267499085	-699.3014883286512	3746.444612969033	-532.7797961122557	-921.1491322193255	3557.210660445426	-451.4228619910014	-784.1373501264078	3587.6992403424924	-436.97455539763655	-587.791610256854	3708.3241558031737	-670.3590028072438	-351.15588942729096	3585.9527138414182	-667.4752345878833	-538.5088882228978	3412.460011881321	-518.9003115049509	-651.8384749918843	3402.767299814359	-447.6322595805119	-657.1718799995057	3380.6186230200474	-429.2696453510496	-626.1548059017723	3343.6329333917215	-428.27411375481097	-637.7623104802936	3887.1368764488157	-426.20347813423774	-395.49467739282824	4012.934131750835	-352.44238863473987	-149.53844172348047	3977.2319893290605	-251.83836457993144	-20.18535298539578	3952.9880031714547	-246.66122732863246	4.301839573948286	3998.422102423081	-231.85769217138244	-10.394515795907623	4020.0111593586594	-232.93427706555786
347	5.783333333333333	-87.10679835419113	3848.8503249667197	-589.8226399233557	264.5700013729987	4040.391102237906	-575.8927529307786	618.7381956176554	4147.167937120536	-525.1742594467577	690.0568616884195	4092.1667106392892	-477.67802590254684	699.5159176473867	4118.048730781087	-555.3032778214294	654.8626221988532	4224.175117071871	-540.0590935041553	-117.4843240241669	3941.150291253758	-398.0720951083176	220.36978809028702	4032.240340728435	-376.10421302811466	572.1132151481564	4195.403634835467	-383.699069676439	663.0105853361066	4154.296397524064	-344.77183979970255	639.1808767294465	4217.535471169232	-332.6892786789196	604.3212625717549	4253.371427877358	-422.8522568842395	-699.347781141609	3746.5738560727214	-532.7963090647556	-921.1447972620342	3557.199622670383	-451.33864375331024	-779.4313744748271	3588.858939189664	-436.6654433035475	-591.9968086630455	3705.497393589008	-674.5671894544981	-351.3635665477528	3585.5917358426923	-667.3119269005344	-541.5454769015688	3434.315929524841	-524.3218664425633	-652.4430336133009	3404.1133613772736	-448.09705321849594	-662.9709459440944	3380.7040852863884	-429.8256041714191	-626.8722190100009	3345.633155955923	-428.43719987660955	-637.7239768129783	3886.7153032040906	-426.0724905423967	-395.4611568368117	4012.43197398601	-352.2829140877533	-148.83157823966823	3980.2094196706653	-258.65099382578416	-14.942444820153506	3956.6246097531093	-248.143427580705	7.959884215124763	3983.713461570062	-221.56811772957514	-7.055501050083354	4005.319249837806	-222.64525719153988
